<?xml version="1.0" encoding="utf-8"?>
<!-- Generator: Adobe Illustrator 19.2.0, SVG Export Plug-In . SVG Version: 6.00 Build 0)  -->
<svg version="1.1" id="Layer_1" xmlns="http://www.w3.org/2000/svg" xmlns:xlink="http://www.w3.org/1999/xlink" x="0px" y="0px"
	 viewBox="0 0 350.7 35.1" style="enable-background:new 0 0 350.7 35.1;" xml:space="preserve">
<style type="text/css">
	.st0{fill:#FFFFFF;}
	.st1{fill:#0088CE;}
</style>
<path class="st0" d="M102.4,3v30.6c0,0.8-0.6,1.4-1.4,1.4h-2.9c-8,0-10.5-2.9-19.7-15L77.7,19C69.5,8.3,68.8,7.4,64.8,7.4h0v26.2
	c0,0.8-0.6,1.4-1.4,1.4h-3c-0.8,0-1.4-0.6-1.4-1.4V3c0-0.8,0.6-1.4,1.4-1.4h2.9c8.4,0,10.8,2.9,19.8,15c8.4,11.5,9.3,12.7,13.6,12.7
	h0V3c0-0.8,0.6-1.4,1.4-1.4h3C101.8,1.6,102.4,2.2,102.4,3z M226.1,1.6h-3.9c-2.1,0-3.1,1.1-3.8,2.1l-15.5,18.5L187.4,3.7
	c-0.8-1-1.7-2.1-3.8-2.1h-3.9c-0.8,0-1.4,0.6-1.4,1.4v30.6c0,0.8,0.6,1.4,1.4,1.4h2.8c0.8,0,1.4-0.6,1.4-1.4V8.2l16.4,19.3
	c0.3,0.3,0.7,0.5,1.1,0.5h3.2c0.4,0,0.8-0.2,1.1-0.5l16.4-19.3v25.5c0,0.8,0.6,1.4,1.4,1.4h2.8c0.8,0,1.4-0.6,1.4-1.4V3
	C227.6,2.2,226.9,1.6,226.1,1.6z M330.6,29.4H314c-7.6,0-10.2-2-10.2-7.9V3c0-0.8-0.6-1.4-1.4-1.4h-2.9c-0.8,0-1.4,0.6-1.4,1.4v18.5
	c0,9.5,4.8,13.5,15.9,13.5h16.6c0.8,0,1.4-0.6,1.4-1.4v-2.8C332,30.1,331.4,29.4,330.6,29.4z M349.4,1.6h-3.2
	c-0.7,0-1.3,0.6-1.3,1.3v30.9c0,0.7,0.6,1.3,1.3,1.3h3.2c0.7,0,1.3-0.6,1.3-1.3V2.9C350.7,2.2,350.1,1.6,349.4,1.6z M163.5,18.3
	c0,14.3-9.3,17.2-23.2,17.2c-13.9,0-23.2-2.9-23.2-17.2c0-14.2,9.3-17.2,23.2-17.2C154.2,1.2,163.5,4.1,163.5,18.3z M157.6,18.3
	c0-10-5.6-11.7-17.3-11.7c-11.7,0-17.3,1.8-17.3,11.7c0,10,5.6,11.7,17.3,11.7C152,30.1,157.6,28.3,157.6,18.3z M32.6,8.2
	c-2.1-4.2-4.7-7-10-7c-5.7,0-8.2,3.4-10,7L0.1,33C-0.1,33.5,0,34,0.2,34.4c0.3,0.4,0.7,0.7,1.2,0.7h3c0.5,0,1-0.3,1.3-0.8L18.1,9.5
	c1.1-2.3,2.4-3.2,4.4-3.2c2,0,3.3,0.9,4.5,3.2l12.5,24.8c0.2,0.5,0.7,0.8,1.3,0.8h3c0.5,0,0.9-0.2,1.2-0.7c0.3-0.4,0.3-0.9,0.1-1.4
	L32.6,8.2z M274,8.2c-2.1-4.2-4.6-7-10-7c-5.7,0-8.2,3.4-10,7L241.6,33c-0.2,0.4-0.2,0.9,0.1,1.4c0.3,0.4,0.7,0.7,1.2,0.7l3,0
	c0.5,0,1-0.3,1.3-0.8l12.5-24.8c1.1-2.3,2.4-3.2,4.4-3.2c2,0,3.3,0.9,4.5,3.2l12.5,24.8c0.2,0.5,0.7,0.8,1.3,0.8l3,0
	c0.5,0,0.9-0.2,1.2-0.7c0.3-0.4,0.3-0.9,0.1-1.4L274,8.2z"/>
<path class="st1" d="M22.6,27.6c-2.6,0-3.8-0.4-3.8-2.6s1.2-2.6,3.8-2.6c2.6,0,3.8,0.4,3.8,2.6S25.1,27.6,22.6,27.6z M264,27.6
	c-2.6,0-3.8-0.4-3.8-2.6s1.2-2.6,3.8-2.6c2.6,0,3.8,0.4,3.8,2.6C267.8,27.2,266.6,27.6,264,27.6z"/>
</svg>
