<svg
    xmlns:dc="http://purl.org/dc/elements/1.1/"
    xmlns:cc="http://creativecommons.org/ns#"
    xmlns:rdf="http://www.w3.org/1999/02/22-rdf-syntax-ns#"
    xmlns:svg="http://www.w3.org/2000/svg"
    xmlns="http://www.w3.org/2000/svg"
    version="1.1"
    width="310"
    height="45"
    viewBox="0 0 310 45"
    xml:space="preserve">
    <g transform="matrix(1.25,0,0,-1.25,-84.754929,100.04871)" id="g10">
        <g transform="scale(0.1,0.1)" id="g12">
<!-- "Threat" -->
<path d="m 1067.59,671.449 -59.93,0 0,30.77 153.32,0 0,-30.77 -59.92,0 0,-158.179 -33.47,0 0,158.179"
   id="path14"
   style="fill:#ffffff;fill-opacity:1;fill-rule:nonzero;stroke:none" />
<path d="m 1182.62,702.219 33.2,0 0,-78.547 90.16,0 0,78.547 33.2,0 0,-188.957 -33.2,0 0,79.629 -90.16,0 0,-79.629 -33.2,0 0,188.957"
   id="path16"
   style="fill:#ffffff;fill-opacity:1;fill-rule:nonzero;stroke:none" />
<path d="m 1456.11,608.559 c 23.75,0 38.87,12.41 38.87,31.578 l 0,0.543 c 0,20.238 -14.58,31.308 -39.14,31.308 l -48.32,0 0,-63.429 48.59,0 z m -81.79,93.66 84.22,0 c 23.75,0 42.37,-7.012 54.52,-18.891 9.99,-10.262 15.66,-24.301 15.66,-40.762 l 0,-0.539 c 0,-31.05 -18.63,-49.668 -45.08,-57.218 l 51.01,-71.539 -39.13,0 -46.43,65.867 -41.57,0 0,-65.867 -33.2,0 0,188.949"
   id="path18"
   style="fill:#ffffff;fill-opacity:1;fill-rule:nonzero;stroke:none" />
<path d="m 1556.03,702.219 140.09,0 0,-29.688 -106.89,0 0,-49.133 94.75,0 0,-29.687 -94.75,0 0,-50.75 108.25,0 0,-29.699 -141.45,0 0,188.957"
   id="path20"
   style="fill:#ffffff;fill-opacity:1;fill-rule:nonzero;stroke:none" />
<path d="m 1837.88,588.305 -32.66,75.59 -32.39,-75.59 65.05,0 z m -47.5,115.258 30.77,0 83.14,-190.297 -35.1,0 -19.16,45.629 -89.35,0 -19.43,-45.629 -34.01,0 83.14,190.297"
   id="path22"
   style="fill:#ffffff;fill-opacity:1;fill-rule:nonzero;stroke:none" />
<path d="m 1945.34,671.449 -59.93,0 0,30.77 153.32,0 0,-30.77 -59.92,0 0,-158.179 -33.47,0 0,158.179"
   id="path24"
   style="fill:#ffffff;fill-opacity:1;fill-rule:nonzero;stroke:none" />
<!-- "Stream" -->
<path d="m 2076.31,540.805 9.18,10.531 c 20.78,-19.16 39.95,-28.082 67.75,-28.082 28.34,0 47.78,15.93 47.78,37.531 l 0,0.528 c 0,19.98 -10.53,31.582 -53.44,40.222 -45.35,9.18 -63.71,24.559 -63.71,53.18 l 0,0.539 c 0,28.07 25.64,49.672 60.74,49.672 27.52,0 45.61,-7.563 64.78,-22.953 l -8.91,-11.071 c -17.82,15.391 -35.63,21.332 -56.42,21.332 -27.8,0 -46.15,-15.929 -46.15,-35.629 l 0,-0.542 c 0,-19.977 10.26,-32.129 55.06,-41.297 43.73,-8.911 62.09,-24.571 62.09,-52.102 l 0,-0.531 c 0,-30.508 -26.19,-51.559 -62.63,-51.559 -30.23,0 -53.44,9.981 -76.12,30.231"
   id="path26"
   style="fill:#ffffff;fill-opacity:1;fill-rule:nonzero;stroke:none" />
<path d="m 2296.11,689.262 -65.87,0 0,12.961 145.76,0 0,-12.961 -65.86,0 0,-176 -14.03,0 0,176"
   id="path28"
   style="fill:#ffffff;fill-opacity:1;fill-rule:nonzero;stroke:none" />
<path d="m 2482.93,604.242 c 31.58,0 55.08,15.918 55.08,43.18 l 0,0.539 c 0,25.379 -19.98,41.301 -54.26,41.301 l -64.51,0 0,-85.02 63.69,0 z m -77.73,97.981 79.35,0 c 23.22,0 41.85,-7.293 53.18,-18.633 8.91,-8.91 14.3,-21.59 14.3,-35.09 l 0,-0.539 c 0,-31.578 -23.48,-49.66 -55.33,-53.981 l 62.36,-80.718 -17.82,0 -60.19,78.281 -61.81,0 0,-78.281 -14.04,0 0,188.961"
   id="path30"
   style="fill:#ffffff;fill-opacity:1;fill-rule:nonzero;stroke:none" />
<path d="m 2586.91,702.219 134.42,0 0,-12.957 -120.39,0 0,-74.231 108.25,0 0,-12.961 -108.25,0 0,-75.84 121.74,0 0,-12.968 -135.77,0 0,188.957"
   id="path32"
   style="fill:#ffffff;fill-opacity:1;fill-rule:nonzero;stroke:none" />
<path d="m 2882.25,578.859 -49.67,109.321 -49.93,-109.321 99.6,0 z m -56.14,124.711 13.49,0 88,-190.3 -15.39,0 -24.02,52.91 -111.48,0 -24.02,-52.91 -14.58,0 88,190.3"
   id="path34"
   style="fill:#ffffff;fill-opacity:1;fill-rule:nonzero;stroke:none" />
<path d="m 2954.11,702.219 13.22,0 75.86,-111.75 75.84,111.75 13.23,0 0,-188.957 -14.03,0 0,164.129 -74.77,-108.782 -1.09,0 -74.76,108.782 0,-164.129 -13.5,0 0,188.957"
   id="path36"
   style="fill:#ffffff;fill-opacity:1;fill-rule:nonzero;stroke:none" />
<!-- "Superman" -->
<path d="m 893.617,516.512 c 0.25,-1.778 -1.019,-2.981 -3.679,-2.969 l -103.09,0 c -3.012,0.012 -4.532,1.398 -4.121,3.211 l -46.008,-46.121 197.187,0 -40.289,45.879"
   id="path38"
   style="fill:#ffffff;fill-opacity:1;fill-rule:nonzero;stroke:none" />
<path d="m 893.617,516.512 c 0.25,-1.778 -1.019,-2.981 -3.679,-2.969 l -103.09,0 c -3.012,0.012 -4.532,1.398 -4.121,3.211 l -46.008,-46.121 197.187,0 -40.289,45.879"
   id="path40"
   style="fill:none;stroke:#ffffff;stroke-width:10;stroke-linecap:butt;stroke-linejoin:miter;stroke-miterlimit:10;stroke-opacity:1;stroke-dasharray:none" />
<path d="m 893.617,516.512 c 0.25,-1.778 -1.019,-2.981 -3.679,-2.969 l -103.09,0 c -3.012,0.012 -4.532,1.398 -4.121,3.211 l -46.008,-46.121 197.187,0 -40.289,45.879"
   id="path42"
   style="fill:#ffffff;fill-opacity:1;fill-rule:nonzero;stroke:none" />
<path d="m 893.617,516.512 c 0.25,-1.778 -1.019,-2.981 -3.679,-2.969 l -103.09,0 c -3.012,0.012 -4.532,1.398 -4.121,3.211 l -46.008,-46.121 197.187,0 -40.289,45.879"
   id="path44"
   style="fill:none;stroke:#ffffff;stroke-width:10;stroke-linecap:butt;stroke-linejoin:miter;stroke-miterlimit:10;stroke-opacity:1;stroke-dasharray:none" />
<path d="m 723.941,470.633 c -15.91,0 -22.687,8.308 -25.808,15.89 -3.442,8.368 -2.153,16.45 2.488,21.368 28.281,30.902 56.27,62.062 84.313,93.191 2.418,2.672 6.777,2.051 9.668,-1.371 l 25.3,-29.969 c 2.891,-3.429 3.239,-8.41 0.809,-11.058 l -36.84,-39.954 c -0.617,-0.679 -0.988,-1.347 -1.141,-1.976 l -46.007,-46.121 -12.782,0"
   id="path46"
   style="fill:#ffffff;fill-opacity:1;fill-rule:nonzero;stroke:none" />
<path d="m 723.941,470.633 c -15.91,0 -22.687,8.308 -25.808,15.89 -3.442,8.368 -2.153,16.45 2.488,21.368 28.281,30.902 56.27,62.062 84.313,93.191 2.418,2.672 6.777,2.051 9.668,-1.371 l 25.3,-29.969 c 2.891,-3.429 3.239,-8.41 0.809,-11.058 l -36.84,-39.954 c -0.617,-0.679 -0.988,-1.347 -1.141,-1.976 l -46.007,-46.121 -12.782,0 z"
   id="path48"
   style="fill:none;stroke:#ffffff;stroke-width:10;stroke-linecap:butt;stroke-linejoin:miter;stroke-miterlimit:10;stroke-opacity:1;stroke-dasharray:none" />
<path d="m 723.941,470.633 c -15.91,0 -22.687,8.308 -25.808,15.89 -3.442,8.368 -2.153,16.45 2.488,21.368 28.281,30.902 56.27,62.062 84.313,93.191 2.418,2.672 6.777,2.051 9.668,-1.371 l 25.3,-29.969 c 2.891,-3.429 3.239,-8.41 0.809,-11.058 l -36.84,-39.954 c -0.617,-0.679 -0.988,-1.347 -1.141,-1.976 l -46.007,-46.121 -12.782,0"
   id="path50"
   style="fill:#ffffff;fill-opacity:1;fill-rule:nonzero;stroke:none" />
<path d="m 723.941,470.633 c -15.91,0 -22.687,8.308 -25.808,15.89 -3.442,8.368 -2.153,16.45 2.488,21.368 28.281,30.902 56.27,62.062 84.313,93.191 2.418,2.672 6.777,2.051 9.668,-1.371 l 25.3,-29.969 c 2.891,-3.429 3.239,-8.41 0.809,-11.058 l -36.84,-39.954 c -0.617,-0.679 -0.988,-1.347 -1.141,-1.976 l -46.007,-46.121 -12.782,0 z"
   id="path52"
   style="fill:none;stroke:#ffffff;stroke-width:10;stroke-linecap:butt;stroke-linejoin:miter;stroke-miterlimit:10;stroke-opacity:1;stroke-dasharray:none" />
<path d="M 891.945,519.711 805.676,620.18 c -46.711,54.418 -95.5,111.988 -97.449,114.73 0,0 -4.86,5.008 -4.129,11.91 0.75,7.09 4.75,13.61 7.918,17.27 7.379,8.519 18.082,9.32 30.879,9.32 1.48,0 3,-0.019 4.55,-0.031 l 42.403,-48.301 0.519,-0.699 c 0,0 142.379,-157.18 183.59,-214.481 4.238,-5.89 9.008,-15.07 -1.211,-29.007 -6.879,-9.383 -22.519,-10.321 -28.441,-10.321 l -10.399,0.059 -40.281,45.559 c 0,0 0.262,1.371 -1.68,3.523"
   id="path54"
   style="fill:#ffffff;fill-opacity:1;fill-rule:nonzero;stroke:none" />
<path d="M 891.945,519.711 805.676,620.18 c -46.711,54.418 -95.5,111.988 -97.449,114.73 0,0 -4.86,5.008 -4.129,11.91 0.75,7.09 4.75,13.61 7.918,17.27 7.379,8.519 18.082,9.32 30.879,9.32 1.48,0 3,-0.019 4.55,-0.031 l 42.403,-48.301 0.519,-0.699 c 0,0 142.379,-157.18 183.59,-214.481 4.238,-5.89 9.008,-15.07 -1.211,-29.007 -6.879,-9.383 -22.519,-10.321 -28.441,-10.321 l -10.399,0.059 -40.281,45.559 c 0,0 0.262,1.371 -1.68,3.523"
   id="path56"
   style="fill:none;stroke:#ffffff;stroke-width:10;stroke-linecap:butt;stroke-linejoin:miter;stroke-miterlimit:10;stroke-opacity:1;stroke-dasharray:none" />
<path d="M 891.945,519.711 805.676,620.18 c -46.711,54.418 -95.5,111.988 -97.449,114.73 0,0 -4.86,5.008 -4.129,11.91 0.75,7.09 4.75,13.61 7.918,17.27 7.379,8.519 18.082,9.32 30.879,9.32 1.48,0 3,-0.019 4.55,-0.031 l 42.403,-48.301 0.519,-0.699 c 0,0 142.379,-157.18 183.59,-214.481 4.238,-5.89 9.008,-15.07 -1.211,-29.007 -6.879,-9.383 -22.519,-10.321 -28.441,-10.321 l -10.399,0.059 -40.281,45.559 c 0,0 0.262,1.371 -1.68,3.523"
   id="path58"
   style="fill:#ffffff;fill-opacity:1;fill-rule:nonzero;stroke:none" />
<path d="M 891.945,519.711 805.676,620.18 c -46.711,54.418 -95.5,111.988 -97.449,114.73 0,0 -4.86,5.008 -4.129,11.91 0.75,7.09 4.75,13.61 7.918,17.27 7.379,8.519 18.082,9.32 30.879,9.32 1.48,0 3,-0.019 4.55,-0.031 l 42.403,-48.301 0.519,-0.699 c 0,0 142.379,-157.18 183.59,-214.481 4.238,-5.89 9.008,-15.07 -1.211,-29.007 -6.879,-9.383 -22.519,-10.321 -28.441,-10.321 l -10.399,0.059 -40.281,45.559 c 0,0 0.262,1.371 -1.68,3.523 z"
   id="path60"
   style="fill:none;stroke:#ffffff;stroke-width:10;stroke-linecap:butt;stroke-linejoin:miter;stroke-miterlimit:10;stroke-opacity:1;stroke-dasharray:none" />
<path d="m 754.516,773.324 c -2.418,0 -4.778,0.028 -7.078,0.059 l 42.41,-48.301 c -2.352,2.66 -1.243,5.473 2.519,5.461 l 103.102,0 c 2.976,-0.012 4.476,-1.371 4.109,-3.16 l 45.828,45.941 -190.89,0"
   id="path62"
   style="fill:#ffffff;fill-opacity:1;fill-rule:nonzero;stroke:none" />
<path d="m 754.516,773.324 c -2.418,0 -4.778,0.028 -7.078,0.059 l 42.41,-48.301 c -2.352,2.66 -1.243,5.473 2.519,5.461 l 103.102,0 c 2.976,-0.012 4.476,-1.371 4.109,-3.16 l 45.828,45.941 -190.89,0"
   id="path64"
   style="fill:none;stroke:#ffffff;stroke-width:10;stroke-linecap:butt;stroke-linejoin:miter;stroke-miterlimit:10;stroke-opacity:1;stroke-dasharray:none" />
<path d="m 754.516,773.324 c -2.418,0 -4.778,0.028 -7.078,0.059 l 42.41,-48.301 c -2.352,2.66 -1.243,5.473 2.519,5.461 l 103.102,0 c 2.976,-0.012 4.476,-1.371 4.109,-3.16 l 45.828,45.941 -190.89,0"
   id="path66"
   style="fill:#ffffff;fill-opacity:1;fill-rule:nonzero;stroke:none" />
<path d="m 754.516,773.324 c -2.418,0 -4.778,0.028 -7.078,0.059 l 42.41,-48.301 c -2.352,2.66 -1.243,5.473 2.519,5.461 l 103.102,0 c 2.976,-0.012 4.476,-1.371 4.109,-3.16 l 45.828,45.941 -190.89,0"
   id="path68"
   style="fill:none;stroke:#ffffff;stroke-width:10;stroke-linecap:butt;stroke-linejoin:miter;stroke-miterlimit:10;stroke-opacity:1;stroke-dasharray:none" />
<path d="m 984.172,757.57 c -3.109,7.571 -9.867,15.75 -25.777,15.75 l -12.993,0 -45.828,-45.937 c -0.133,-0.633 -0.492,-1.32 -1.14,-2.024 l -36.821,-39.957 c -2.449,-2.64 -2.09,-7.621 0.809,-11.062 l 25.293,-29.957 c 2.887,-3.434 7.25,-4.043 9.668,-1.371 0,0 75.461,83.801 84.301,93.187 4.648,4.934 5.929,12.992 2.488,21.371"
   id="path70"
   style="fill:#ffffff;fill-opacity:1;fill-rule:nonzero;stroke:none" />
<path d="m 984.172,757.57 c -3.109,7.571 -9.867,15.75 -25.777,15.75 l -12.993,0 -45.828,-45.937 c -0.133,-0.633 -0.492,-1.32 -1.14,-2.024 l -36.821,-39.957 c -2.449,-2.64 -2.09,-7.621 0.809,-11.062 l 25.293,-29.957 c 2.887,-3.434 7.25,-4.043 9.668,-1.371 0,0 75.461,83.801 84.301,93.187 4.648,4.934 5.929,12.992 2.488,21.371"
   id="path72"
   style="fill:none;stroke:#ffffff;stroke-width:10;stroke-linecap:butt;stroke-linejoin:miter;stroke-miterlimit:10;stroke-opacity:1;stroke-dasharray:none" />
<path d="m 984.172,757.57 c -3.109,7.571 -9.867,15.75 -25.777,15.75 l -12.993,0 -45.828,-45.937 c -0.133,-0.633 -0.492,-1.32 -1.14,-2.024 l -36.821,-39.957 c -2.449,-2.64 -2.09,-7.621 0.809,-11.062 l 25.293,-29.957 c 2.887,-3.434 7.25,-4.043 9.668,-1.371 0,0 75.461,83.801 84.301,93.187 4.648,4.934 5.929,12.992 2.488,21.371"
   id="path74"
   style="fill:#ffffff;fill-opacity:1;fill-rule:nonzero;stroke:none" />
<path d="m 984.172,757.57 c -3.109,7.571 -9.867,15.75 -25.777,15.75 l -12.993,0 -45.828,-45.937 c -0.133,-0.633 -0.492,-1.32 -1.14,-2.024 l -36.821,-39.957 c -2.449,-2.64 -2.09,-7.621 0.809,-11.062 l 25.293,-29.957 c 2.887,-3.434 7.25,-4.043 9.668,-1.371 0,0 75.461,83.801 84.301,93.187 4.648,4.934 5.929,12.992 2.488,21.371"
   id="path76"
   style="fill:none;stroke:#ffffff;stroke-width:10;stroke-linecap:butt;stroke-linejoin:miter;stroke-miterlimit:10;stroke-opacity:1;stroke-dasharray:none" />
        </g>
    </g>
</svg>