<?xml version="1.0" encoding="UTF-8"?>
<svg width="256px" height="240px" viewBox="0 0 256 240" version="1.1" xmlns="http://www.w3.org/2000/svg" xmlns:xlink="http://www.w3.org/1999/xlink">
    <!-- Generator: Sketch 42 (36781) - http://www.bohemiancoding.com/sketch -->
    <title>Logo</title>
    <desc>Created with Sketch.</desc>
    <defs>
        <path d="M18,0 C27.941,0 36,8.059 36,18 C36,27.941 27.941,36 18,36 C8.059,36 0,27.941 0,18 C0,8.059 8.059,0 18,0 Z" id="path-1"></path>
        <path d="M18,0 C27.941,0 36,8.059 36,18 C36,27.941 27.941,36 18,36 C8.059,36 0,27.941 0,18 C0,8.059 8.059,0 18,0 Z" id="path-3"></path>
        <path d="M0.06,19.4803178 C0.812868547,28.7288779 8.55742994,36 18,36 C27.941,36 36,27.941 36,18 C36,8.059 27.941,0 18,0 C8.55742994,0 0.812868547,7.27112214 0.06,16.5196822 L0.06,19.4803178 L0.06,19.4803178 Z" id="path-5"></path>
        <path d="M16.3507525,83.94 C24.0019103,83.2570689 30,76.8287284 30,69 L30,15 C30,6.716 23.284,0 15,0 C6.716,0 0,6.716 0,15 L0,69 C0,76.8287284 5.9980897,83.2570689 13.6492475,83.94 L16.3507525,83.94 L16.3507525,83.94 Z" id="path-7"></path>
        <path d="M30,166 C30,174.284 23.284,181 15,181 C6.716,181 0,174.284 0,166 L0,15 C0,6.716 6.716,0 15,0 C23.284,0 30,6.716 30,15 L30,166 Z" id="path-9"></path>
        <path d="M30,166 C30,174.284 23.284,181 15,181 C6.716,181 0,174.284 0,166 L0,15 C0,6.716 6.716,0 15,0 C23.284,0 30,6.716 30,15 L30,166 Z" id="path-11"></path>
        <path d="M30,69 C30,77.284 23.284,84 15,84 C6.716,84 0,77.284 0,69 L0,15 C0,6.716 6.716,0 15,0 C23.284,0 30,6.716 30,15 L30,69 Z" id="path-13"></path>
    </defs>
    <g id="Page-1" stroke="none" stroke-width="1" fill="none" fill-rule="evenodd">
        <g id="Custom-Preset">
            <g id="Logo">
                <g id="Group-6" transform="translate(110.000000, 102.000000)">
                    <mask id="mask-2" fill="white">
                        <use xlink:href="#path-1"></use>
                    </mask>
                    <g id="Clip-5"></g>
                    <polygon id="Fill-4" fill="#23B44E" mask="url(#mask-2)" points="-0.02 36.06 36.1 36.06 36.1 -0.06 -0.02 -0.06"></polygon>
                </g>
                <g id="Group-9" transform="translate(220.000000, 102.000000)">
                    <mask id="mask-4" fill="white">
                        <use xlink:href="#path-3"></use>
                    </mask>
                    <g id="Clip-8"></g>
                    <polygon id="Fill-7" fill="#0075CE" mask="url(#mask-4)" points="-0.1 36.06 36.02 36.06 36.02 -0.06 -0.1 -0.06"></polygon>
                </g>
                <g id="Group-12" transform="translate(0.000000, 102.000000)">
                    <mask id="mask-6" fill="white">
                        <use xlink:href="#path-5"></use>
                    </mask>
                    <g id="Clip-11"></g>
                    <polygon id="Fill-10" fill="#003388" mask="url(#mask-6)" points="0.06 36.06 36.06 36.06 36.06 -0.06 0.06 -0.06"></polygon>
                </g>
                <g id="Group-15" transform="translate(113.000000, 156.000000)">
                    <mask id="mask-8" fill="white">
                        <use xlink:href="#path-7"></use>
                    </mask>
                    <g id="Clip-14"></g>
                    <polygon id="Fill-13" fill="#003388" mask="url(#mask-8)" points="-0.02 83.94 30.1 83.94 30.1 -0.06 -0.02 -0.06"></polygon>
                </g>
                <g id="Group-18" transform="translate(168.000000, 30.000000)">
                    <mask id="mask-10" fill="white">
                        <use xlink:href="#path-9"></use>
                    </mask>
                    <g id="Clip-17"></g>
                    <polygon id="Fill-16" fill="#0075CE" mask="url(#mask-10)" points="-0.06 181.02 30.06 181.02 30.06 -0.06 -0.06 -0.06"></polygon>
                </g>
                <g id="Group-21" transform="translate(58.000000, 30.000000)">
                    <mask id="mask-12" fill="white">
                        <use xlink:href="#path-11"></use>
                    </mask>
                    <g id="Clip-20"></g>
                    <polygon id="Fill-19" fill="#003388" mask="url(#mask-12)" points="-0.1 181.02 30.02 181.02 30.02 -0.06 -0.1 -0.06"></polygon>
                </g>
                <g id="Group-24" transform="translate(113.000000, 0.000000)">
                    <mask id="mask-14" fill="white">
                        <use xlink:href="#path-13"></use>
                    </mask>
                    <g id="Clip-23"></g>
                    <polygon id="Fill-22" fill="#0075CE" mask="url(#mask-14)" points="-0.02 84.06 30.1 84.06 30.1 -0.06 -0.02 -0.06"></polygon>
                </g>
            </g>
        </g>
    </g>
</svg>