<?xml version="1.0" encoding="UTF-8"?>
<svg width="1582px" height="240px" viewBox="0 0 1582 240" version="1.1" xmlns="http://www.w3.org/2000/svg" xmlns:xlink="http://www.w3.org/1999/xlink">
    <!-- Generator: Sketch 42 (36781) - http://www.bohemiancoding.com/sketch -->
    <title>Untitled</title>
    <desc>Created with Sketch.</desc>
    <defs>
        <path d="M0.697,151.79 L0.697,12.686 C0.697,11.03 1.284,9.65 2.457,8.546 C3.63,7.442 5.113,6.821 6.907,6.683 L44.788,6.683 C58.588,6.683 69.697,9.891 78.115,16.309 C86.533,22.726 90.742,33.317 90.742,48.083 C90.742,70.853 80.461,84.308 59.899,88.448 L90.535,146.615 C91.087,147.581 91.363,148.547 91.363,149.513 C91.363,151.721 90.259,153.756 88.051,155.619 C85.843,157.483 83.497,158.414 81.013,158.414 C78.115,158.414 75.493,156.137 73.147,151.583 L41.89,90.932 L18.085,90.932 L18.085,151.79 C18.085,153.722 17.223,155.24 15.498,156.344 C13.772,157.448 11.737,158 9.391,158 C7.045,158 5.01,157.448 3.285,156.344 C1.559,155.24 0.697,153.722 0.697,151.79 Z M18.085,76.442 L44.788,76.442 C63.832,76.442 73.354,67.403 73.354,49.325 C73.354,31.385 63.832,22.415 44.788,22.415 L18.085,22.415 L18.085,76.442 Z M103.472,119.498 L103.472,97.763 C103.472,87.137 107.508,77.96 115.582,70.232 C123.655,62.504 133.349,58.64 144.665,58.64 C155.429,58.64 164.744,62.262 172.61,69.508 C180.476,76.753 184.409,85.826 184.409,96.728 C184.409,100.73 183.926,103.938 182.96,106.354 C181.994,108.769 180.511,110.493 178.51,111.529 C176.509,112.564 174.646,113.219 172.921,113.495 C171.196,113.771 168.884,113.909 165.986,113.909 L120.653,113.909 L120.653,120.119 C120.653,127.709 123.379,133.781 128.83,138.335 C134.281,142.889 141.353,145.166 150.047,145.166 C154.601,145.166 158.569,144.476 161.95,143.096 C165.331,141.716 168.056,140.371 170.126,139.059 C172.196,137.748 173.852,137.093 175.094,137.093 C177.026,137.093 178.682,137.955 180.062,139.68 C181.442,141.406 182.132,143.165 182.132,144.959 C182.132,148.133 178.993,151.376 172.714,154.688 C166.435,158 158.672,159.656 149.426,159.656 C135.902,159.656 124.862,155.965 116.306,148.581 C107.75,141.198 103.472,131.504 103.472,119.498 Z M120.653,102.317 L158.948,102.317 C162.536,102.317 164.951,101.869 166.193,100.971 C167.435,100.074 168.056,98.315 168.056,95.693 C168.056,89.483 165.779,84.032 161.225,79.34 C156.671,74.648 151.082,72.302 144.458,72.302 C137.972,72.302 132.383,74.475 127.691,78.823 C122.999,83.17 120.653,88.517 120.653,94.865 L120.653,102.317 Z M199.209,119.498 L199.209,98.798 C199.209,86.93 202.694,77.27 209.663,69.818 C216.632,62.366 226.878,58.64 240.402,58.64 C248.958,58.64 256.169,60.158 262.034,63.194 C267.899,66.23 270.831,69.473 270.831,72.923 C270.831,74.855 270.107,76.752 268.658,78.616 C267.209,80.479 265.518,81.41 263.586,81.41 C263.034,81.41 260.654,80.203 256.445,77.787 C252.236,75.372 247.302,74.165 241.644,74.165 C233.364,74.165 227.085,76.304 222.807,80.582 C218.529,84.86 216.39,90.932 216.39,98.798 L216.39,119.498 C216.39,135.92 224.877,144.131 241.851,144.131 C247.647,144.131 252.684,142.889 256.962,140.405 C261.24,137.921 263.724,136.679 264.414,136.679 C266.622,136.679 268.451,137.576 269.9,139.37 C271.349,141.164 272.073,143.027 272.073,144.959 C272.073,148.409 269.037,151.721 262.965,154.895 C256.893,158.069 249.441,159.656 240.609,159.656 C226.947,159.656 216.632,155.965 209.663,148.581 C202.694,141.198 199.209,131.504 199.209,119.498 Z M283.561,119.498 L283.561,98.384 C283.561,87.758 287.598,78.478 295.671,70.542 C303.744,62.607 313.3,58.64 324.34,58.64 C335.38,58.64 344.971,62.573 353.113,70.439 C361.255,78.305 365.326,87.62 365.326,98.384 L365.326,119.498 C365.326,129.986 361.221,139.301 353.01,147.443 C344.799,155.585 335.242,159.656 324.34,159.656 C313.438,159.656 303.916,155.62 295.774,147.546 C287.632,139.473 283.561,130.124 283.561,119.498 Z M300.742,119.498 C300.742,125.984 303.088,131.711 307.78,136.679 C312.472,141.647 317.992,144.131 324.34,144.131 C330.826,144.131 336.415,141.613 341.107,136.576 C345.799,131.538 348.145,125.846 348.145,119.498 L348.145,98.384 C348.145,92.174 345.799,86.585 341.107,81.617 C336.415,76.649 330.826,74.165 324.34,74.165 C317.854,74.165 312.3,76.649 307.677,81.617 C303.054,86.585 300.742,92.174 300.742,98.384 L300.742,119.498 Z M385.301,151.79 L385.301,65.885 C385.301,64.091 386.095,62.642 387.682,61.538 C389.269,60.434 391.304,59.882 393.788,59.882 C395.996,59.882 397.859,60.434 399.377,61.538 C400.895,62.642 401.654,64.091 401.654,65.885 L401.654,75.614 C404.138,70.922 407.795,66.92 412.625,63.608 C417.455,60.296 422.837,58.64 428.771,58.64 L435.809,58.64 C437.603,58.64 439.156,59.433 440.467,61.02 C441.778,62.608 442.433,64.436 442.433,66.506 C442.433,68.576 441.778,70.37 440.467,71.888 C439.156,73.406 437.603,74.165 435.809,74.165 L428.771,74.165 C421.733,74.165 415.592,76.994 410.348,82.652 C405.104,88.31 402.482,95.624 402.482,104.594 L402.482,151.79 C402.482,153.308 401.62,154.722 399.895,156.034 C398.17,157.344 396.134,158 393.788,158 C391.442,158 389.441,157.379 387.785,156.137 C386.129,154.895 385.301,153.446 385.301,151.79 Z M448.953,119.498 L448.953,98.384 C448.953,87.482 452.61,78.133 459.924,70.335 C467.238,62.538 475.932,58.64 486.006,58.64 C492.216,58.64 497.667,60.158 502.359,63.194 C507.051,66.23 510.639,69.956 513.123,74.372 L513.123,6.683 C513.123,4.889 513.951,3.44 515.607,2.336 C517.263,1.232 519.333,0.68 521.817,0.68 C524.301,0.68 526.337,1.232 527.924,2.336 C529.511,3.44 530.304,4.889 530.304,6.683 L530.304,151.79 C530.304,153.446 529.476,154.895 527.82,156.137 C526.164,157.379 524.163,158 521.817,158 C519.747,158 517.919,157.379 516.332,156.137 C514.745,154.895 513.951,153.446 513.951,151.79 L513.951,143.51 C511.605,147.926 507.81,151.721 502.566,154.895 C497.322,158.069 491.595,159.656 485.385,159.656 C475.725,159.656 467.238,155.585 459.924,147.443 C452.61,139.301 448.953,129.986 448.953,119.498 Z M466.134,119.498 C466.134,125.846 468.48,131.538 473.172,136.576 C477.864,141.613 483.315,144.131 489.525,144.131 C495.597,144.131 501.048,141.82 505.878,137.197 C510.708,132.573 513.123,128.537 513.123,125.087 L513.123,98.384 C513.123,91.208 510.777,85.378 506.085,80.893 C501.393,76.407 495.942,74.165 489.732,74.165 C483.384,74.165 477.864,76.649 473.172,81.617 C468.48,86.585 466.134,92.174 466.134,98.384 L466.134,119.498 Z M548.491,119.498 L548.491,97.763 C548.491,87.137 552.528,77.96 560.601,70.232 C568.674,62.504 578.368,58.64 589.684,58.64 C600.448,58.64 609.763,62.262 617.629,69.508 C625.495,76.753 629.428,85.826 629.428,96.728 C629.428,100.73 628.945,103.938 627.979,106.354 C627.013,108.769 625.53,110.493 623.529,111.529 C621.528,112.564 619.665,113.219 617.94,113.495 C616.215,113.771 613.903,113.909 611.005,113.909 L565.672,113.909 L565.672,120.119 C565.672,127.709 568.398,133.781 573.849,138.335 C579.3,142.889 586.372,145.166 595.066,145.166 C599.62,145.166 603.588,144.476 606.969,143.096 C610.35,141.716 613.075,140.371 615.145,139.059 C617.215,137.748 618.871,137.093 620.113,137.093 C622.045,137.093 623.701,137.955 625.081,139.68 C626.461,141.406 627.151,143.165 627.151,144.959 C627.151,148.133 624.012,151.376 617.733,154.688 C611.454,158 603.691,159.656 594.445,159.656 C580.921,159.656 569.881,155.965 561.325,148.581 C552.769,141.198 548.491,131.504 548.491,119.498 Z M565.672,102.317 L603.967,102.317 C607.555,102.317 609.97,101.869 611.212,100.971 C612.454,100.074 613.075,98.315 613.075,95.693 C613.075,89.483 610.798,84.032 606.244,79.34 C601.69,74.648 596.101,72.302 589.477,72.302 C582.991,72.302 577.402,74.475 572.71,78.823 C568.018,83.17 565.672,88.517 565.672,94.865 L565.672,102.317 Z M644.026,119.498 L644.026,98.384 C644.026,87.482 647.683,78.133 654.997,70.335 C662.311,62.538 671.005,58.64 681.079,58.64 C687.289,58.64 692.74,60.158 697.432,63.194 C702.124,66.23 705.712,69.956 708.196,74.372 L708.196,6.683 C708.196,4.889 709.024,3.44 710.68,2.336 C712.336,1.232 714.406,0.68 716.89,0.68 C719.374,0.68 721.41,1.232 722.997,2.336 C724.584,3.44 725.377,4.889 725.377,6.683 L725.377,151.79 C725.377,153.446 724.549,154.895 722.893,156.137 C721.237,157.379 719.236,158 716.89,158 C714.82,158 712.992,157.379 711.405,156.137 C709.818,154.895 709.024,153.446 709.024,151.79 L709.024,143.51 C706.678,147.926 702.883,151.721 697.639,154.895 C692.395,158.069 686.668,159.656 680.458,159.656 C670.798,159.656 662.311,155.585 654.997,147.443 C647.683,139.301 644.026,129.986 644.026,119.498 Z M661.207,119.498 C661.207,125.846 663.553,131.538 668.245,136.576 C672.937,141.613 678.388,144.131 684.598,144.131 C690.67,144.131 696.121,141.82 700.951,137.197 C705.781,132.573 708.196,128.537 708.196,125.087 L708.196,98.384 C708.196,91.208 705.85,85.378 701.158,80.893 C696.466,76.407 691.015,74.165 684.805,74.165 C678.457,74.165 672.937,76.649 668.245,81.617 C663.553,86.585 661.207,92.174 661.207,98.384 L661.207,119.498 Z M792.049,151.997 L792.049,12.893 C792.049,10.961 792.843,9.443 794.43,8.339 C796.017,7.235 797.845,6.683 799.915,6.683 L872.779,6.683 C874.711,6.683 876.195,7.442 877.23,8.96 C878.265,10.478 878.782,12.272 878.782,14.342 C878.782,16.688 878.265,18.62 877.23,20.138 C876.195,21.656 874.711,22.415 872.779,22.415 L809.437,22.415 L809.437,74.993 L841.729,74.993 C843.661,74.993 845.145,75.717 846.18,77.166 C847.215,78.616 847.732,80.375 847.732,82.445 C847.732,84.239 847.215,85.86 846.18,87.31 C845.145,88.759 843.661,89.483 841.729,89.483 L809.437,89.483 L809.437,151.997 C809.437,153.929 808.575,155.412 806.85,156.448 C805.125,157.483 803.089,158 800.743,158 C798.397,158 796.362,157.483 794.637,156.448 C792.912,155.412 792.049,153.929 792.049,151.997 Z M866.289,119.912 L866.289,66.092 C866.289,64.436 867.152,62.987 868.877,61.745 C870.602,60.503 872.637,59.882 874.983,59.882 C877.191,59.882 879.158,60.537 880.883,61.848 C882.608,63.16 883.47,64.574 883.47,66.092 L883.47,119.912 C883.47,126.122 885.816,131.711 890.508,136.679 C895.2,141.647 900.789,144.131 907.275,144.131 C913.623,144.131 919.143,141.682 923.835,136.783 C928.527,131.883 930.873,126.26 930.873,119.912 L930.873,65.885 C930.873,64.367 931.736,62.987 933.461,61.745 C935.186,60.503 937.221,59.882 939.567,59.882 C942.051,59.882 944.087,60.468 945.674,61.641 C947.261,62.814 948.054,64.229 948.054,65.885 L948.054,119.912 C948.054,130.538 944.018,139.818 935.945,147.754 C927.872,155.689 918.315,159.656 907.275,159.656 C896.097,159.656 886.472,155.689 878.399,147.754 C870.326,139.818 866.289,130.538 866.289,119.912 Z M970.418,126.743 L970.418,20.138 C970.418,18.482 971.315,17.068 973.109,15.895 C974.903,14.721 976.835,14.135 978.905,14.135 C981.113,14.135 983.114,14.721 984.908,15.895 C986.702,17.068 987.599,18.482 987.599,20.138 L987.599,59.882 L1013.681,59.882 C1015.199,59.882 1016.441,60.572 1017.407,61.952 C1018.373,63.332 1018.856,64.919 1018.856,66.713 C1018.856,68.507 1018.373,70.059 1017.407,71.37 C1016.441,72.682 1015.199,73.337 1013.681,73.337 L987.599,73.337 L987.599,126.743 C987.599,132.677 988.876,136.851 991.429,139.266 C993.982,141.682 998.432,142.889 1004.78,142.889 L1011.197,142.889 C1013.543,142.889 1015.372,143.613 1016.683,145.063 C1017.994,146.512 1018.649,148.271 1018.649,150.341 C1018.649,152.411 1017.959,154.205 1016.579,155.723 C1015.199,157.241 1013.405,158 1011.197,158 L1004.78,158 C981.872,158 970.418,147.581 970.418,126.743 Z M1033.449,119.912 L1033.449,66.092 C1033.449,64.436 1034.312,62.987 1036.037,61.745 C1037.762,60.503 1039.797,59.882 1042.143,59.882 C1044.351,59.882 1046.318,60.537 1048.043,61.848 C1049.768,63.16 1050.63,64.574 1050.63,66.092 L1050.63,119.912 C1050.63,126.122 1052.976,131.711 1057.668,136.679 C1062.36,141.647 1067.949,144.131 1074.435,144.131 C1080.783,144.131 1086.303,141.682 1090.995,136.783 C1095.687,131.883 1098.033,126.26 1098.033,119.912 L1098.033,65.885 C1098.033,64.367 1098.896,62.987 1100.621,61.745 C1102.346,60.503 1104.381,59.882 1106.727,59.882 C1109.211,59.882 1111.247,60.468 1112.833,61.641 C1114.421,62.814 1115.214,64.229 1115.214,65.885 L1115.214,119.912 C1115.214,130.538 1111.178,139.818 1103.105,147.754 C1095.032,155.689 1085.475,159.656 1074.435,159.656 C1063.257,159.656 1053.632,155.689 1045.559,147.754 C1037.486,139.818 1033.449,130.538 1033.449,119.912 Z M1138.087,151.79 L1138.087,65.885 C1138.087,64.091 1138.881,62.642 1140.468,61.538 C1142.055,60.434 1144.09,59.882 1146.574,59.882 C1148.782,59.882 1150.645,60.434 1152.163,61.538 C1153.681,62.642 1154.44,64.091 1154.44,65.885 L1154.44,75.614 C1156.924,70.922 1160.581,66.92 1165.411,63.608 C1170.241,60.296 1175.623,58.64 1181.557,58.64 L1188.595,58.64 C1190.389,58.64 1191.942,59.433 1193.253,61.02 C1194.564,62.608 1195.219,64.436 1195.219,66.506 C1195.219,68.576 1194.564,70.37 1193.253,71.888 C1191.942,73.406 1190.389,74.165 1188.595,74.165 L1181.557,74.165 C1174.519,74.165 1168.378,76.994 1163.134,82.652 C1157.89,88.31 1155.268,95.624 1155.268,104.594 L1155.268,151.79 C1155.268,153.308 1154.406,154.722 1152.681,156.034 C1150.956,157.344 1148.92,158 1146.574,158 C1144.228,158 1142.227,157.379 1140.571,156.137 C1138.915,154.895 1138.087,153.446 1138.087,151.79 Z M1201.739,119.498 L1201.739,97.763 C1201.739,87.137 1205.776,77.96 1213.849,70.232 C1221.922,62.504 1231.616,58.64 1242.932,58.64 C1253.696,58.64 1263.011,62.262 1270.877,69.508 C1278.743,76.753 1282.676,85.826 1282.676,96.728 C1282.676,100.73 1282.193,103.938 1281.227,106.354 C1280.261,108.769 1278.778,110.493 1276.777,111.529 C1274.776,112.564 1272.913,113.219 1271.188,113.495 C1269.463,113.771 1267.151,113.909 1264.253,113.909 L1218.92,113.909 L1218.92,120.119 C1218.92,127.709 1221.646,133.781 1227.097,138.335 C1232.548,142.889 1239.62,145.166 1248.314,145.166 C1252.868,145.166 1256.836,144.476 1260.217,143.096 C1263.598,141.716 1266.323,140.371 1268.393,139.059 C1270.463,137.748 1272.119,137.093 1273.361,137.093 C1275.293,137.093 1276.949,137.955 1278.329,139.68 C1279.709,141.406 1280.399,143.165 1280.399,144.959 C1280.399,148.133 1277.26,151.376 1270.981,154.688 C1264.702,158 1256.939,159.656 1247.693,159.656 C1234.169,159.656 1223.129,155.965 1214.573,148.581 C1206.017,141.198 1201.739,131.504 1201.739,119.498 Z M1218.92,102.317 L1257.215,102.317 C1260.803,102.317 1263.218,101.869 1264.46,100.971 C1265.702,100.074 1266.323,98.315 1266.323,95.693 C1266.323,89.483 1264.046,84.032 1259.492,79.34 C1254.938,74.648 1249.349,72.302 1242.725,72.302 C1236.239,72.302 1230.65,74.475 1225.958,78.823 C1221.266,83.17 1218.92,88.517 1218.92,94.865 L1218.92,102.317 Z" id="path-1"></path>
        <path d="M18,0 C27.941,0 36,8.059 36,18 C36,27.941 27.941,36 18,36 C8.059,36 0,27.941 0,18 C0,8.059 8.059,0 18,0 Z" id="path-3"></path>
        <path d="M18,0 C27.941,0 36,8.059 36,18 C36,27.941 27.941,36 18,36 C8.059,36 0,27.941 0,18 C0,8.059 8.059,0 18,0 Z" id="path-5"></path>
        <path d="M0.06,19.4803178 C0.812868547,28.7288779 8.55742994,36 18,36 C27.941,36 36,27.941 36,18 C36,8.059 27.941,0 18,0 C8.55742994,0 0.812868547,7.27112214 0.06,16.5196822 L0.06,19.4803178 L0.06,19.4803178 Z" id="path-7"></path>
        <path d="M16.3507525,83.94 C24.0019103,83.2570689 30,76.8287284 30,69 L30,15 C30,6.716 23.284,0 15,0 C6.716,0 0,6.716 0,15 L0,69 C0,76.8287284 5.9980897,83.2570689 13.6492475,83.94 L16.3507525,83.94 L16.3507525,83.94 Z" id="path-9"></path>
        <path d="M30,166 C30,174.284 23.284,181 15,181 C6.716,181 0,174.284 0,166 L0,15 C0,6.716 6.716,0 15,0 C23.284,0 30,6.716 30,15 L30,166 Z" id="path-11"></path>
        <path d="M30,166 C30,174.284 23.284,181 15,181 C6.716,181 0,174.284 0,166 L0,15 C0,6.716 6.716,0 15,0 C23.284,0 30,6.716 30,15 L30,166 Z" id="path-13"></path>
        <path d="M30,69 C30,77.284 23.284,84 15,84 C6.716,84 0,77.284 0,69 L0,15 C0,6.716 6.716,0 15,0 C23.284,0 30,6.716 30,15 L30,69 Z" id="path-15"></path>
    </defs>
    <g id="Page-1" stroke="none" stroke-width="1" fill="none" fill-rule="evenodd">
        <g id="1">
            <g id="Group-3" transform="translate(299.000000, 38.000000)">
                <mask id="mask-2" fill="white">
                    <use xlink:href="#path-1"></use>
                </mask>
                <g id="Clip-2"></g>
                <polygon id="Fill-1" fill="#1F1F1F" mask="url(#mask-2)" points="0.58 159.7 1282.78 159.7 1282.78 0.58 0.58 0.58"></polygon>
            </g>
            <g id="Group-6" transform="translate(110.000000, 102.000000)">
                <mask id="mask-4" fill="white">
                    <use xlink:href="#path-3"></use>
                </mask>
                <g id="Clip-5"></g>
                <polygon id="Fill-4" fill="#23B44E" mask="url(#mask-4)" points="-0.02 36.06 36.1 36.06 36.1 -0.06 -0.02 -0.06"></polygon>
            </g>
            <g id="Group-9" transform="translate(220.000000, 102.000000)">
                <mask id="mask-6" fill="white">
                    <use xlink:href="#path-5"></use>
                </mask>
                <g id="Clip-8"></g>
                <polygon id="Fill-7" fill="#0075CE" mask="url(#mask-6)" points="-0.1 36.06 36.02 36.06 36.02 -0.06 -0.1 -0.06"></polygon>
            </g>
            <g id="Group-12" transform="translate(0.000000, 102.000000)">
                <mask id="mask-8" fill="white">
                    <use xlink:href="#path-7"></use>
                </mask>
                <g id="Clip-11"></g>
                <polygon id="Fill-10" fill="#003388" mask="url(#mask-8)" points="0.06 36.06 36.06 36.06 36.06 -0.06 0.06 -0.06"></polygon>
            </g>
            <g id="Group-15" transform="translate(113.000000, 156.000000)">
                <mask id="mask-10" fill="white">
                    <use xlink:href="#path-9"></use>
                </mask>
                <g id="Clip-14"></g>
                <polygon id="Fill-13" fill="#003388" mask="url(#mask-10)" points="-0.02 83.94 30.1 83.94 30.1 -0.06 -0.02 -0.06"></polygon>
            </g>
            <g id="Group-18" transform="translate(168.000000, 30.000000)">
                <mask id="mask-12" fill="white">
                    <use xlink:href="#path-11"></use>
                </mask>
                <g id="Clip-17"></g>
                <polygon id="Fill-16" fill="#0075CE" mask="url(#mask-12)" points="-0.06 181.02 30.06 181.02 30.06 -0.06 -0.06 -0.06"></polygon>
            </g>
            <g id="Group-21" transform="translate(58.000000, 30.000000)">
                <mask id="mask-14" fill="white">
                    <use xlink:href="#path-13"></use>
                </mask>
                <g id="Clip-20"></g>
                <polygon id="Fill-19" fill="#003388" mask="url(#mask-14)" points="-0.1 181.02 30.02 181.02 30.02 -0.06 -0.1 -0.06"></polygon>
            </g>
            <g id="Group-24" transform="translate(113.000000, 0.000000)">
                <mask id="mask-16" fill="white">
                    <use xlink:href="#path-15"></use>
                </mask>
                <g id="Clip-23"></g>
                <polygon id="Fill-22" fill="#0075CE" mask="url(#mask-16)" points="-0.02 84.06 30.1 84.06 30.1 -0.06 -0.02 -0.06"></polygon>
            </g>
        </g>
    </g>
</svg>